<?xml version="1.0" standalone="no"?>
<!DOCTYPE svg PUBLIC "-//W3C//DTD SVG 20010904//EN"
 "http://www.w3.org/TR/2001/REC-SVG-20010904/DTD/svg10.dtd">
<svg version="1.0" xmlns="http://www.w3.org/2000/svg"
 width="510.000000pt" height="510.000000pt" viewBox="0 0 510.000000 510.000000"
 preserveAspectRatio="xMidYMid meet">
<metadata>
Created by potrace 1.14, written by Peter Selinger 2001-2017
</metadata>
<g transform="translate(0.000000,510.000000) scale(0.100000,-0.100000)"
fill="#000000" stroke="none">
<path d="M2230 5079 c-248 -33 -423 -79 -636 -164 -319 -129 -591 -311 -844
-565 -261 -261 -456 -561 -584 -897 -60 -157 -114 -366 -132 -508 -3 -27 -8
-53 -10 -56 -16 -28 -24 -448 -10 -584 45 -456 217 -901 488 -1267 34 -46 66
-88 72 -94 6 -6 29 -33 51 -60 118 -142 340 -337 526 -460 260 -172 654 -333
904 -369 22 -3 46 -8 53 -10 7 -3 34 -7 60 -10 26 -4 58 -8 72 -11 56 -9 192
-17 310 -17 150 0 244 7 388 29 20 3 46 7 57 8 162 23 415 101 593 183 41 18
75 33 78 33 12 0 201 110 288 167 225 149 463 369 600 553 22 30 43 57 47 60
9 8 82 118 129 195 63 103 162 306 204 419 74 197 138 475 154 666 12 153 5
467 -14 580 -30 185 -38 223 -64 318 -12 42 -23 82 -24 87 -2 6 -6 17 -9 25
-3 8 -22 62 -43 119 -62 173 -230 487 -321 601 -6 8 -42 53 -78 100 -69 87
-280 302 -349 355 -21 17 -48 38 -60 49 -11 10 -41 32 -66 49 -25 17 -47 34
-50 38 -12 16 -234 147 -335 197 -255 126 -490 198 -800 243 -140 20 -491 19
-645 -2z"/>
</g>
</svg>
